{
    "asset" : {
        "generator" : "Khronos glTF Blender I/O v1.7.33",
        "version" : "2.0"
    },
    "scene" : 0,
    "scenes" : [
        {
            "name" : "Scene",
            "nodes" : [
                1,
                2,
                3,
                4,
                5,
                6
            ]
        }
    ],
    "nodes" : [
        {
            "camera" : 0,
            "name" : "Camera",
            "rotation" : [
                -0.7071067690849304,
                0,
                0,
                0.7071067690849304
            ]
        },
        {
            "children" : [
                0
            ],
            "rotation" : [
                0.06550777703523636,
                0.7008329033851624,
                -0.7082592248916626,
                0.0539519339799881
            ],
            "translation" : [
                29.32143211364746,
                -0.35307884216308594,
                -72.98155975341797
            ]
        },
        {
            "mesh" : 0,
            "name" : "Cube",
            "scale" : [
                210.92379760742188,
                0.336849570274353,
                210.92379760742188
            ],
            "translation" : [
                1.6478447914123535,
                -5.0597333908081055,
                0.1343744546175003
            ]
        },
        {
            "mesh" : 1,
            "name" : "Cube.001",
            "translation" : [
                38.29799270629883,
                3.7119064331054688,
                36.86886978149414
            ]
        },
        {
            "mesh" : 2,
            "name" : "Cube.002",
            "translation" : [
                7.433141231536865,
                -1.2977099418640137,
                77.16223907470703
            ]
        },
        {
            "mesh" : 3,
            "name" : "Cube.003",
            "translation" : [
                -37.6790771484375,
                0,
                29.34805679321289
            ]
        },
        {
            "mesh" : 4,
            "name" : "Cube.004",
            "translation" : [
                -34.969078063964844,
                -1.5755583047866821,
                -5.658071517944336
            ]
        }
    ],
    "cameras" : [
        {
            "name" : "Camera",
            "perspective" : {
                "aspectRatio" : 1.7777777777777777,
                "yfov" : 0.39959652046304894,
                "zfar" : 100,
                "znear" : 0.10000000149011612
            },
            "type" : "perspective"
        }
    ],
    "materials" : [
        {
            "doubleSided" : true,
            "name" : "Material",
            "pbrMetallicRoughness" : {
                "baseColorTexture" : {
                    "index" : 0
                },
                "metallicFactor" : 0,
                "roughnessFactor" : 0.5
            }
        }
    ],
    "meshes" : [
        {
            "name" : "Cube.001",
            "primitives" : [
                {
                    "attributes" : {
                        "POSITION" : 0,
                        "NORMAL" : 1,
                        "TEXCOORD_0" : 2
                    },
                    "indices" : 3,
                    "material" : 0
                }
            ]
        },
        {
            "name" : "Cube.002",
            "primitives" : [
                {
                    "attributes" : {
                        "POSITION" : 4,
                        "NORMAL" : 5,
                        "TEXCOORD_0" : 6
                    },
                    "indices" : 7,
                    "material" : 0
                }
            ]
        },
        {
            "name" : "Cube.003",
            "primitives" : [
                {
                    "attributes" : {
                        "POSITION" : 8,
                        "NORMAL" : 9,
                        "TEXCOORD_0" : 10
                    },
                    "indices" : 3,
                    "material" : 0
                }
            ]
        },
        {
            "name" : "Cube.004",
            "primitives" : [
                {
                    "attributes" : {
                        "POSITION" : 11,
                        "NORMAL" : 12,
                        "TEXCOORD_0" : 13
                    },
                    "indices" : 3,
                    "material" : 0
                }
            ]
        },
        {
            "name" : "Cube.005",
            "primitives" : [
                {
                    "attributes" : {
                        "POSITION" : 14,
                        "NORMAL" : 15,
                        "TEXCOORD_0" : 16
                    },
                    "indices" : 3,
                    "material" : 0
                }
            ]
        }
    ],
    "textures" : [
        {
            "sampler" : 0,
            "source" : 0
        }
    ],
    "images" : [
        {
            "mimeType" : "image/png",
            "name" : "Untitled",
            "uri" : "Untitled.png"
        }
    ],
    "accessors" : [
        {
            "bufferView" : 0,
            "componentType" : 5126,
            "count" : 24,
            "max" : [
                1,
                1,
                1
            ],
            "min" : [
                -1,
                -1,
                -1
            ],
            "type" : "VEC3"
        },
        {
            "bufferView" : 1,
            "componentType" : 5126,
            "count" : 24,
            "type" : "VEC3"
        },
        {
            "bufferView" : 2,
            "componentType" : 5126,
            "count" : 24,
            "type" : "VEC2"
        },
        {
            "bufferView" : 3,
            "componentType" : 5123,
            "count" : 36,
            "type" : "SCALAR"
        },
        {
            "bufferView" : 4,
            "componentType" : 5126,
            "count" : 56,
            "max" : [
                74.05386352539062,
                8.533576965332031,
                9.356277465820312
            ],
            "min" : [
                -13.563682556152344,
                -30.53357696533203,
                -39.35627746582031
            ],
            "type" : "VEC3"
        },
        {
            "bufferView" : 5,
            "componentType" : 5126,
            "count" : 56,
            "type" : "VEC3"
        },
        {
            "bufferView" : 6,
            "componentType" : 5126,
            "count" : 56,
            "type" : "VEC2"
        },
        {
            "bufferView" : 7,
            "componentType" : 5123,
            "count" : 84,
            "type" : "SCALAR"
        },
        {
            "bufferView" : 8,
            "componentType" : 5126,
            "count" : 24,
            "max" : [
                23.970428466796875,
                4.076639175415039,
                9.460025787353516
            ],
            "min" : [
                -23.970428466796875,
                -4.076639175415039,
                -9.460025787353516
            ],
            "type" : "VEC3"
        },
        {
            "bufferView" : 9,
            "componentType" : 5126,
            "count" : 24,
            "type" : "VEC3"
        },
        {
            "bufferView" : 10,
            "componentType" : 5126,
            "count" : 24,
            "type" : "VEC2"
        },
        {
            "bufferView" : 11,
            "componentType" : 5126,
            "count" : 24,
            "max" : [
                8.492828369140625,
                8.492828369140625,
                8.492828369140625
            ],
            "min" : [
                -8.492828369140625,
                -8.492828369140625,
                -8.492828369140625
            ],
            "type" : "VEC3"
        },
        {
            "bufferView" : 12,
            "componentType" : 5126,
            "count" : 24,
            "type" : "VEC3"
        },
        {
            "bufferView" : 13,
            "componentType" : 5126,
            "count" : 24,
            "type" : "VEC2"
        },
        {
            "bufferView" : 14,
            "componentType" : 5126,
            "count" : 24,
            "max" : [
                3.0694618225097656,
                3.0694618225097656,
                3.0694618225097656
            ],
            "min" : [
                -3.0694618225097656,
                -3.0694618225097656,
                -3.0694618225097656
            ],
            "type" : "VEC3"
        },
        {
            "bufferView" : 15,
            "componentType" : 5126,
            "count" : 24,
            "type" : "VEC3"
        },
        {
            "bufferView" : 16,
            "componentType" : 5126,
            "count" : 24,
            "type" : "VEC2"
        }
    ],
    "bufferViews" : [
        {
            "buffer" : 0,
            "byteLength" : 288,
            "byteOffset" : 0
        },
        {
            "buffer" : 0,
            "byteLength" : 288,
            "byteOffset" : 288
        },
        {
            "buffer" : 0,
            "byteLength" : 192,
            "byteOffset" : 576
        },
        {
            "buffer" : 0,
            "byteLength" : 72,
            "byteOffset" : 768
        },
        {
            "buffer" : 0,
            "byteLength" : 672,
            "byteOffset" : 840
        },
        {
            "buffer" : 0,
            "byteLength" : 672,
            "byteOffset" : 1512
        },
        {
            "buffer" : 0,
            "byteLength" : 448,
            "byteOffset" : 2184
        },
        {
            "buffer" : 0,
            "byteLength" : 168,
            "byteOffset" : 2632
        },
        {
            "buffer" : 0,
            "byteLength" : 288,
            "byteOffset" : 2800
        },
        {
            "buffer" : 0,
            "byteLength" : 288,
            "byteOffset" : 3088
        },
        {
            "buffer" : 0,
            "byteLength" : 192,
            "byteOffset" : 3376
        },
        {
            "buffer" : 0,
            "byteLength" : 288,
            "byteOffset" : 3568
        },
        {
            "buffer" : 0,
            "byteLength" : 288,
            "byteOffset" : 3856
        },
        {
            "buffer" : 0,
            "byteLength" : 192,
            "byteOffset" : 4144
        },
        {
            "buffer" : 0,
            "byteLength" : 288,
            "byteOffset" : 4336
        },
        {
            "buffer" : 0,
            "byteLength" : 288,
            "byteOffset" : 4624
        },
        {
            "buffer" : 0,
            "byteLength" : 192,
            "byteOffset" : 4912
        }
    ],
    "samplers" : [
        {
            "magFilter" : 9729,
            "minFilter" : 9987
        }
    ],
    "buffers" : [
        {
            "byteLength" : 5104,
            "uri" : "testmap.bin"
        }
    ]
}
