{
    "asset" : {
        "generator" : "Khronos glTF Blender I/O v1.7.33",
        "version" : "2.0"
    },
    "scene" : 0,
    "scenes" : [
        {
            "name" : "Scene",
            "nodes" : [
                0
            ]
        }
    ],
    "nodes" : [
        {
            "mesh" : 0,
            "name" : "Cube"
        }
    ],
    "materials" : [
        {
            "doubleSided" : true,
            "name" : "Material",
            "pbrMetallicRoughness" : {
                "baseColorFactor" : [
                    0.043972697108983994,
                    0.043972697108983994,
                    0.043972697108983994,
                    1
                ],
                "metallicFactor" : 0
            }
        }
    ],
    "meshes" : [
        {
            "name" : "Cube",
            "primitives" : [
                {
                    "attributes" : {
                        "POSITION" : 0,
                        "NORMAL" : 1,
                        "TEXCOORD_0" : 2
                    },
                    "indices" : 3,
                    "material" : 0
                }
            ]
        }
    ],
    "accessors" : [
        {
            "bufferView" : 0,
            "componentType" : 5126,
            "count" : 2651,
            "max" : [
                15,
                15,
                1
            ],
            "min" : [
                -9,
                -15,
                -67.02913665771484
            ],
            "type" : "VEC3"
        },
        {
            "bufferView" : 1,
            "componentType" : 5126,
            "count" : 2651,
            "type" : "VEC3"
        },
        {
            "bufferView" : 2,
            "componentType" : 5126,
            "count" : 2651,
            "type" : "VEC2"
        },
        {
            "bufferView" : 3,
            "componentType" : 5123,
            "count" : 13920,
            "type" : "SCALAR"
        }
    ],
    "bufferViews" : [
        {
            "buffer" : 0,
            "byteLength" : 31812,
            "byteOffset" : 0
        },
        {
            "buffer" : 0,
            "byteLength" : 31812,
            "byteOffset" : 31812
        },
        {
            "buffer" : 0,
            "byteLength" : 21208,
            "byteOffset" : 63624
        },
        {
            "buffer" : 0,
            "byteLength" : 27840,
            "byteOffset" : 84832
        }
    ],
    "buffers" : [
        {
            "byteLength" : 112672,
            "uri" : "map_base_backup006.bin"
        }
    ]
}
